<svg width="40" height="40" viewBox="0 0 40 40" fill="none" xmlns="http://www.w3.org/2000/svg">
<path fill-rule="evenodd" clip-rule="evenodd" d="M20.0007 0.774902C19.4338 0.774902 18.8787 0.933741 18.4009 1.23267C17.9293 1.52778 17.5524 1.94725 17.3136 2.44266L12.7777 11.4106C12.7688 11.4282 12.7603 11.446 12.7521 11.464L12.7429 11.4752L12.7292 11.4805C12.7118 11.4823 12.6944 11.4845 12.6771 11.4871L2.68971 12.936C2.1377 12.9886 1.6113 13.1915 1.1704 13.5222C0.714195 13.8644 0.369104 14.3289 0.176932 14.8592C-0.0152403 15.3896 -0.0462492 15.9632 0.0876625 16.5104C0.221056 17.0556 0.512395 17.5514 0.926584 17.9382L8.23737 24.846L8.25403 24.8615C8.26446 24.8711 8.27232 24.883 8.27683 24.8963C8.28134 24.9096 8.2824 24.9238 8.27989 24.9375L6.53617 34.9311C6.44046 35.4723 6.50106 36.0313 6.71194 36.54C6.92311 37.0498 7.27614 37.4911 7.7308 37.8139C8.18549 38.1366 8.72354 38.3279 9.28377 38.366C9.84289 38.4041 10.4017 38.2879 10.8968 38.0311L10.8998 38.0294L19.8983 33.3721C19.9306 33.3584 19.9655 33.3511 20.0008 33.3511C20.0361 33.3511 20.0709 33.3584 20.1032 33.3721L29.1016 38.0294C29.597 38.2871 30.1581 38.4043 30.7176 38.366C31.2779 38.3279 31.8159 38.1366 32.2707 37.8139C32.7253 37.4911 33.0784 37.0498 33.2896 36.54C33.5004 36.0313 33.5613 35.4751 33.4659 34.9342L33.4653 34.9311L31.7233 24.9466L31.7216 24.9375C31.719 24.9238 31.7201 24.9096 31.7247 24.8963C31.729 24.883 31.737 24.8711 31.7473 24.8615L31.7641 24.846L39.075 17.9381C39.489 17.5513 39.7804 17.0556 39.9139 16.5104C40.0476 15.9632 40.0167 15.3896 39.8244 14.8592C39.6324 14.3289 39.2873 13.8644 38.831 13.5222C38.3901 13.1915 37.8639 12.9886 37.3119 12.936L27.3244 11.4871C27.3071 11.4845 27.2897 11.4823 27.2723 11.4805L27.2585 11.4752L27.2493 11.464C27.2412 11.446 27.2326 11.4282 27.2237 11.4106L22.6878 2.44262C22.449 1.94723 22.0722 1.52777 21.6005 1.23267C21.1228 0.933741 20.5677 0.774902 20.0007 0.774902Z" fill="#517971"/>
</svg>
